# xmcd
#
# Track frame offsets:
# 150
# 38115
# 73622
# 105487
# 159877
# 196685
# 235895
# 257772
#
# Disc length: 4053 seconds
# Revision: 6
# Processed by: cddbd v1.5.1PL0 Copyright (c) Steve Scherf et al.
# Submitted via: MusicBin 0.4
#
DISCID=5c0fd308
DTITLE=Various Artist - The Blue Note Years, Vol. 5: The Avant Garde (dis
DTITLE=c 2)
DYEAR=1968
DGENRE=Jazz
TTITLE0=Eric Dolphy - Hat And Beard
TTITLE1=Grachan Moncur III - Monk In Wonderland
TTITLE2=Andrew Hill - New Monastery
TTITLE3=Eric Dolphy - Out To Lunch
TTITLE4=Ornette Coleman - Dawn
TTITLE5=Ornette Coleman - Broad Way Blues
TTITLE6=Don Cherry - There Is The Bomb
TTITLE7=Cecil Taylor - Steps
EXTD=
EXTT0=YEAR: 1964\nComposer: Eric Dolphy
EXTT1=YEAR: 1963\nComposer: Grachan Moncur III
EXTT2=YEAR: 1964\nComposer: Andrew Hill
EXTT3=YEAR: 1964\nComposer: Eric Dolphy
EXTT4=YEAR: 1965\nComposer: Ornette Coleman
EXTT5=YEAR: 1968\nComposer: Ornette Coleman
EXTT6=YEAR: 1966\nComposer: Don Cherry
EXTT7=YEAR: 1966\nComposer: Cecil Taylor
PLAYORDER=
